999
dxflib 2.0.4.8
  0
SECTION
  2
HEADER
  9
$ACADVER
  1
AC1015
  9
$HANDSEED
  5
FFFF
  9
$DIMASZ
 40
2.5
  9
$DIMGAP
 40
0.625
  9
$DIMEXO
 40
0.625
  9
$INSUNITS
 70
4
  9
$DIMTXT
 40
2.5
  9
$DIMSTYLE
  2
Standard
  9
$PLIMMAX
 10
210.0
 20
297.0
  9
$PLIMMIN
 10
0.0
 20
0.0
  9
$DIMEXE
 40
1.25
  0
ENDSEC
  0
SECTION
  2
TABLES
  0
TABLE
  2
VPORT
  5
8
100
AcDbSymbolTable
 70
1
  0
VPORT
  5
30
100
AcDbSymbolTableRecord
100
AcDbViewportTableRecord
  2
*Active
 70
0
 10
0.0
 20
0.0
 11
1.0
 21
1.0
 12
286.3055555555554861
 22
148.5
 13
0.0
 23
0.0
 14
10.0
 24
10.0
 15
10.0
 25
10.0
 16
0.0
 26
0.0
 36
1.0
 17
0.0
 27
0.0
 37
0.0
 40
297.0
 41
1.92798353909465
 42
50.0
 43
0.0
 44
0.0
 50
0.0
 51
0.0
 71
0
 72
100
 73
1
 74
3
 75
1
 76
1
 77
0
 78
0
281
0
 65
1
110
0.0
120
0.0
130
0.0
111
1.0
121
0.0
131
0.0
112
0.0
122
1.0
132
0.0
 79
0
146
0.0
  0
ENDTAB
  0
TABLE
  2
LTYPE
  5
5
100
AcDbSymbolTable
 70
21
  0
LTYPE
  5
14
100
AcDbSymbolTableRecord
100
AcDbLinetypeTableRecord
  2
ByBlock
 70
0
  3

 72
65
 73
0
 40
0.0
  0
LTYPE
  5
15
100
AcDbSymbolTableRecord
100
AcDbLinetypeTableRecord
  2
ByLayer
 70
0
  3

 72
65
 73
0
 40
0.0
  0
LTYPE
  5
16
100
AcDbSymbolTableRecord
100
AcDbLinetypeTableRecord
  2
CONTINUOUS
 70
0
  3
Solid line
 72
65
 73
0
 40
0.0
  0
LTYPE
  5
31
100
AcDbSymbolTableRecord
100
AcDbLinetypeTableRecord
  2
DOT
 70
0
  3
Dot . . . . . . . . . . . . . . . . . . . . . .
 72
65
 73
2
 40
6.3499999999999996
 49
0.0
 74
0
 49
-6.3499999999999996
 74
0
  0
LTYPE
  5
32
100
AcDbSymbolTableRecord
100
AcDbLinetypeTableRecord
  2
DOT2
 70
0
  3
Dot (.5x) .....................................
 72
65
 73
2
 40
3.1749999999999998
 49
0.0
 74
0
 49
-3.1749999999999998
 74
0
  0
LTYPE
  5
33
100
AcDbSymbolTableRecord
100
AcDbLinetypeTableRecord
  2
DOTX2
 70
0
  3
Dot (2x) .  .  .  .  .  .  .  .  .  .  .  .  .
 72
65
 73
2
 40
12.6999999999999993
 49
0.0
 74
0
 49
-12.6999999999999993
 74
0
  0
LTYPE
  5
34
100
AcDbSymbolTableRecord
100
AcDbLinetypeTableRecord
  2
DASHED
 70
0
  3
Dashed __ __ __ __ __ __ __ __ __ __ __ __ __ _
 72
65
 73
2
 40
19.0500000000000007
 49
12.6999999999999993
 74
0
 49
-6.3499999999999996
 74
0
  0
LTYPE
  5
35
100
AcDbSymbolTableRecord
100
AcDbLinetypeTableRecord
  2
DASHED2
 70
0
  3
Dashed (.5x) _ _ _ _ _ _ _ _ _ _ _ _ _ _ _ _ _
 72
65
 73
2
 40
9.5250000000000004
 49
6.3499999999999996
 74
0
 49
-3.1749999999999998
 74
0
  0
LTYPE
  5
36
100
AcDbSymbolTableRecord
100
AcDbLinetypeTableRecord
  2
DASHEDX2
 70
0
  3
Dashed (2x) ____  ____  ____  ____  ____  ___
 72
65
 73
2
 40
38.1000000000000014
 49
25.3999999999999986
 74
0
 49
-12.6999999999999993
 74
0
  0
LTYPE
  5
37
100
AcDbSymbolTableRecord
100
AcDbLinetypeTableRecord
  2
DASHDOT
 70
0
  3
Dash dot __ . __ . __ . __ . __ . __ . __ . __
 72
65
 73
4
 40
25.3999999999999986
 49
12.6999999999999993
 74
0
 49
-6.3499999999999996
 74
0
 49
0.0
 74
0
 49
-6.3499999999999996
 74
0
  0
LTYPE
  5
38
100
AcDbSymbolTableRecord
100
AcDbLinetypeTableRecord
  2
DASHDOT2
 70
0
  3
Dash dot (.5x) _._._._._._._._._._._._._._._.
 72
65
 73
4
 40
12.6999999999999993
 49
6.3499999999999996
 74
0
 49
-3.1749999999999998
 74
0
 49
0.0
 74
0
 49
-3.1749999999999998
 74
0
  0
LTYPE
  5
39
100
AcDbSymbolTableRecord
100
AcDbLinetypeTableRecord
  2
DASHDOTX2
 70
0
  3
Dash dot (2x) ____  .  ____  .  ____  .  ___
 72
65
 73
4
 40
50.7999999999999972
 49
25.3999999999999986
 74
0
 49
-12.6999999999999993
 74
0
 49
0.0
 74
0
 49
-12.6999999999999993
 74
0
  0
LTYPE
  5
3A
100
AcDbSymbolTableRecord
100
AcDbLinetypeTableRecord
  2
DIVIDE
 70
0
  3
Divide ____ . . ____ . . ____ . . ____ . . ____
 72
65
 73
6
 40
31.75
 49
12.6999999999999993
 74
0
 49
-6.3499999999999996
 74
0
 49
0.0
 74
0
 49
-6.3499999999999996
 74
0
 49
0.0
 74
0
 49
-6.3499999999999996
 74
0
  0
LTYPE
  5
3B
100
AcDbSymbolTableRecord
100
AcDbLinetypeTableRecord
  2
DIVIDE2
 70
0
  3
Divide (.5x) __..__..__..__..__..__..__..__.._
 72
65
 73
6
 40
15.875
 49
6.3499999999999996
 74
0
 49
-3.1749999999999998
 74
0
 49
0.0
 74
0
 49
-3.1749999999999998
 74
0
 49
0.0
 74
0
 49
-3.1749999999999998
 74
0
  0
LTYPE
  5
3C
100
AcDbSymbolTableRecord
100
AcDbLinetypeTableRecord
  2
DIVIDEX2
 70
0
  3
Divide (2x) ________  .  .  ________  .  .  _
 72
65
 73
6
 40
63.5
 49
25.3999999999999986
 74
0
 49
-12.6999999999999993
 74
0
 49
0.0
 74
0
 49
-12.6999999999999993
 74
0
 49
0.0
 74
0
 49
-12.6999999999999993
 74
0
  0
LTYPE
  5
3D
100
AcDbSymbolTableRecord
100
AcDbLinetypeTableRecord
  2
CENTER
 70
0
  3
Center ____ _ ____ _ ____ _ ____ _ ____ _ ____
 72
65
 73
4
 40
50.7999999999999972
 49
31.75
 74
0
 49
-6.3499999999999996
 74
0
 49
6.3499999999999996
 74
0
 49
-6.3499999999999996
 74
0
  0
LTYPE
  5
3E
100
AcDbSymbolTableRecord
100
AcDbLinetypeTableRecord
  2
CENTER2
 70
0
  3
Center (.5x) ___ _ ___ _ ___ _ ___ _ ___ _ ___
 72
65
 73
4
 40
28.5749999999999993
 49
19.0500000000000007
 74
0
 49
-3.1749999999999998
 74
0
 49
3.1749999999999998
 74
0
 49
-3.1749999999999998
 74
0
  0
LTYPE
  5
3F
100
AcDbSymbolTableRecord
100
AcDbLinetypeTableRecord
  2
CENTERX2
 70
0
  3
Center (2x) ________  __  ________  __  _____
 72
65
 73
4
 40
101.5999999999999943
 49
63.5
 74
0
 49
-12.6999999999999993
 74
0
 49
12.6999999999999993
 74
0
 49
-12.6999999999999993
 74
0
  0
LTYPE
  5
40
100
AcDbSymbolTableRecord
100
AcDbLinetypeTableRecord
  2
BORDER
 70
0
  3
Border __ __ . __ __ . __ __ . __ __ . __ __ .
 72
65
 73
6
 40
44.4500000000000028
 49
12.6999999999999993
 74
0
 49
-6.3499999999999996
 74
0
 49
12.6999999999999993
 74
0
 49
-6.3499999999999996
 74
0
 49
0.0
 74
0
 49
-6.3499999999999996
 74
0
  0
LTYPE
  5
41
100
AcDbSymbolTableRecord
100
AcDbLinetypeTableRecord
  2
BORDER2
 70
0
  3
Border (.5x) __.__.__.__.__.__.__.__.__.__.__.
 72
65
 73
6
 40
22.2250000000000014
 49
6.3499999999999996
 74
0
 49
-3.1749999999999998
 74
0
 49
6.3499999999999996
 74
0
 49
-3.1749999999999998
 74
0
 49
0.0
 74
0
 49
-3.1749999999999998
 74
0
  0
LTYPE
  5
42
100
AcDbSymbolTableRecord
100
AcDbLinetypeTableRecord
  2
BORDERX2
 70
0
  3
Border (2x) ____  ____  .  ____  ____  .  ___
 72
65
 73
6
 40
88.9000000000000057
 49
25.3999999999999986
 74
0
 49
-12.6999999999999993
 74
0
 49
25.3999999999999986
 74
0
 49
-12.6999999999999993
 74
0
 49
0.0
 74
0
 49
-12.6999999999999993
 74
0
  0
ENDTAB
  0
TABLE
  2
LAYER
  5
2
100
AcDbSymbolTable
 70
5
  0
LAYER
  5
10
100
AcDbSymbolTableRecord
100
AcDbLayerTableRecord
  2
0
 70
0
 62
7
  6
CONTINUOUS
370
0
390
F
  0
LAYER
  5
43
100
AcDbSymbolTableRecord
100
AcDbLayerTableRecord
  2
Axis
 70
0
 62
4
  6
DASHDOT
370
0
390
F
  0
LAYER
  5
44
100
AcDbSymbolTableRecord
100
AcDbLayerTableRecord
  2
Base
 70
0
 62
7
  6
CONTINUOUS
370
0
390
F
  0
LAYER
  5
45
100
AcDbSymbolTableRecord
100
AcDbLayerTableRecord
  2
Hidden
 70
0
 62
6
  6
DOT
370
0
390
F
  0
LAYER
  5
46
100
AcDbSymbolTableRecord
100
AcDbLayerTableRecord
  2
Dimensions
 70
0
 62
1
  6
CONTINUOUS
370
0
390
F
  0
ENDTAB
  0
TABLE
  2
STYLE
  5
3
100
AcDbSymbolTable
 70
1
  0
STYLE
  5
11
100
AcDbSymbolTableRecord
100
AcDbTextStyleTableRecord
  2
Standard
 70
0
 40
0.0
 41
0.75
 50
0.0
 71
0
 42
2.5
  3
txt
  4

  0
ENDTAB
  0
TABLE
  2
VIEW
  5
6
100
AcDbSymbolTable
 70
0
  0
ENDTAB
  0
TABLE
  2
UCS
  5
7
100
AcDbSymbolTable
 70
0
  0
ENDTAB
  0
TABLE
  2
APPID
  5
9
100
AcDbSymbolTable
 70
1
  0
APPID
  5
12
100
AcDbSymbolTableRecord
100
AcDbRegAppTableRecord
  2
ACAD
 70
0
  0
ENDTAB
  0
TABLE
  2
DIMSTYLE
  5
A
100
AcDbSymbolTable
 70
1
100
AcDbDimStyleTable
 71
0
  0
DIMSTYLE
105
27
100
AcDbSymbolTableRecord
100
AcDbDimStyleTableRecord
  2
Standard
 41
2.5
 42
0.625
 43
3.75
 44
1.25
 70
0
 73
0
 74
0
 77
1
 78
8
140
2.5
141
2.5
143
0.03937007874016
147
0.625
171
3
172
1
271
2
272
2
274
3
278
44
283
0
284
8
340
11
  0
ENDTAB
  0
TABLE
  2
BLOCK_RECORD
  5
1
100
AcDbSymbolTable
 70
1
  0
BLOCK_RECORD
  5
1F
100
AcDbSymbolTableRecord
100
AcDbBlockTableRecord
  2
*Model_Space
340
22
  0
BLOCK_RECORD
  5
1B
100
AcDbSymbolTableRecord
100
AcDbBlockTableRecord
  2
*Paper_Space
340
1E
  0
BLOCK_RECORD
  5
23
100
AcDbSymbolTableRecord
100
AcDbBlockTableRecord
  2
*Paper_Space0
340
26
  0
ENDTAB
  0
ENDSEC
  0
SECTION
  2
BLOCKS
  0
BLOCK
  5
20
100
AcDbEntity
  8
0
100
AcDbBlockBegin
  2
*Model_Space
 70
0
 10
0.0
 20
0.0
 30
0.0
  3
*Model_Space
  1

  0
ENDBLK
  5
21
100
AcDbEntity
  8
0
100
AcDbBlockEnd
  0
BLOCK
  5
1C
100
AcDbEntity
 67
1
  8
0
100
AcDbBlockBegin
  2
*Paper_Space
 70
0
 10
0.0
 20
0.0
 30
0.0
  3
*Paper_Space
  1

  0
ENDBLK
  5
1D
100
AcDbEntity
 67
1
  8
0
100
AcDbBlockEnd
  0
BLOCK
  5
24
100
AcDbEntity
  8
0
100
AcDbBlockBegin
  2
*Paper_Space0
 70
0
 10
0.0
 20
0.0
 30
0.0
  3
*Paper_Space0
  1

  0
ENDBLK
  5
25
100
AcDbEntity
  8
0
100
AcDbBlockEnd
  0
ENDSEC
  0
SECTION
  2
ENTITIES
  0
LINE
  5
47
100
AcDbEntity
100
AcDbLine
  8
Axis
 62
256
370
-1
  6
ByLayer
 10
-15.0
 20
12.5
 30
0.0
 11
-15.0
 21
17.5
 31
0.0
  0
LINE
  5
48
100
AcDbEntity
100
AcDbLine
  8
Axis
 62
256
370
-1
  6
ByLayer
 10
-12.5
 20
15.0
 30
0.0
 11
-17.5
 21
15.0
 31
0.0
  0
LINE
  5
49
100
AcDbEntity
100
AcDbLine
  8
Axis
 62
256
370
-1
  6
ByLayer
 10
15.0
 20
12.5
 30
0.0
 11
15.0
 21
17.5
 31
0.0
  0
LINE
  5
4A
100
AcDbEntity
100
AcDbLine
  8
Axis
 62
256
370
-1
  6
ByLayer
 10
17.5
 20
15.0
 30
0.0
 11
12.5
 21
15.0
 31
0.0
  0
LINE
  5
4B
100
AcDbEntity
100
AcDbLine
  8
Base
 62
256
370
-1
  6
ByLayer
 10
-17.6998106832086926
 20
4.5006145082678017
 30
0.0
 11
0.0
 21
4.5006145082678017
 31
0.0
  0
ARC
  5
4C
100
AcDbEntity
  8
Base
 62
256
370
-1
  6
ByLayer
100
AcDbCircle
 10
-17.6998106832086926
 20
1.700614508267801
 30
0.0
 40
2.7999999999999998
100
AcDbArc
 50
90.0
 51
180.0
  0
LINE
  5
4D
100
AcDbEntity
100
AcDbLine
  8
Base
 62
256
370
-1
  6
ByLayer
 10
-20.4998106832086933
 20
-6.6993854917321976
 30
0.0
 11
-20.4998106832086933
 21
1.700614508267801
 31
0.0
  0
LINE
  5
4E
100
AcDbEntity
100
AcDbLine
  8
Base
 62
256
370
-1
  6
ByLayer
 10
-9.4998106832086933
 20
-9.4993854917321983
 30
0.0
 11
-17.6998106832086926
 21
-9.4993854917321983
 31
0.0
  0
ARC
  5
4F
100
AcDbEntity
  8
Base
 62
256
370
-1
  6
ByLayer
100
AcDbCircle
 10
-17.6998106832086926
 20
-6.6993854917321976
 30
0.0
 40
2.7999999999999998
100
AcDbArc
 50
180.0
 51
270.0
  0
LINE
  5
50
100
AcDbEntity
100
AcDbLine
  8
Base
 62
256
370
-1
  6
ByLayer
 10
-9.4998106832086933
 20
-9.4993854917321983
 30
0.0
 11
-9.4998106832086933
 21
-15.6933854917321973
 31
0.0
  0
LINE
  5
51
100
AcDbEntity
100
AcDbLine
  8
Base
 62
256
370
-1
  6
ByLayer
 10
-6.6998106832086926
 20
-18.493385491732198
 30
0.0
 11
0.0
 21
-18.493385491732198
 31
0.0
  0
ARC
  5
52
100
AcDbEntity
  8
Base
 62
256
370
-1
  6
ByLayer
100
AcDbCircle
 10
-6.6998106832086926
 20
-15.6933854917321973
 30
0.0
 40
2.7999999999999998
100
AcDbArc
 50
180.0
 51
270.0
  0
LINE
  5
53
100
AcDbEntity
100
AcDbLine
  8
Axis
 62
256
370
-1
  6
ByLayer
 10
-15.0
 20
-17.5
 30
0.0
 11
-15.0
 21
-12.5
 31
0.0
  0
LINE
  5
54
100
AcDbEntity
100
AcDbLine
  8
Axis
 62
256
370
-1
  6
ByLayer
 10
-12.5
 20
-15.0
 30
0.0
 11
-17.5
 21
-15.0
 31
0.0
  0
LINE
  5
55
100
AcDbEntity
100
AcDbLine
  8
Axis
 62
256
370
-1
  6
ByLayer
 10
15.0
 20
-17.5
 30
0.0
 11
15.0
 21
-12.5
 31
0.0
  0
LINE
  5
56
100
AcDbEntity
100
AcDbLine
  8
Axis
 62
256
370
-1
  6
ByLayer
 10
17.5
 20
-15.0
 30
0.0
 11
12.5
 21
-15.0
 31
0.0
  0
CIRCLE
  5
57
100
AcDbEntity
100
AcDbCircle
  8
Base
 62
256
370
-1
  6
ByLayer
 10
15.0
 20
15.0
 30
0.0
 40
1.5
  0
CIRCLE
  5
58
100
AcDbEntity
100
AcDbCircle
  8
Base
 62
256
370
-1
  6
ByLayer
 10
-15.0
 20
-15.0
 30
0.0
 40
1.5
  0
CIRCLE
  5
59
100
AcDbEntity
100
AcDbCircle
  8
Base
 62
256
370
-1
  6
ByLayer
 10
15.0
 20
-15.0
 30
0.0
 40
1.5
  0
CIRCLE
  5
5A
100
AcDbEntity
100
AcDbCircle
  8
Base
 62
256
370
-1
  6
ByLayer
 10
-15.0
 20
15.0
 30
0.0
 40
1.5
  0
ARC
  5
5B
100
AcDbEntity
  8
Base
 62
256
370
-1
  6
ByLayer
100
AcDbCircle
 10
-25.0
 20
25.0
 30
0.0
 40
1.5
100
AcDbArc
 50
90.0
 51
180.0
  0
LINE
  5
5C
100
AcDbEntity
100
AcDbLine
  8
Base
 62
256
370
-1
  6
ByLayer
 10
-25.0
 20
26.5
 30
0.0
 11
25.0
 21
26.5
 31
0.0
  0
ARC
  5
5D
100
AcDbEntity
  8
Base
 62
256
370
-1
  6
ByLayer
100
AcDbCircle
 10
25.0
 20
25.0
 30
0.0
 40
1.5
100
AcDbArc
 50
0.0
 51
90.0
  0
LINE
  5
5E
100
AcDbEntity
100
AcDbLine
  8
Base
 62
256
370
-1
  6
ByLayer
 10
26.5
 20
25.0
 30
0.0
 11
26.5
 21
-25.0
 31
0.0
  0
ARC
  5
5F
100
AcDbEntity
  8
Base
 62
256
370
-1
  6
ByLayer
100
AcDbCircle
 10
25.0
 20
-25.0
 30
0.0
 40
1.5
100
AcDbArc
 50
270.0
 51
0.0
  0
LINE
  5
60
100
AcDbEntity
100
AcDbLine
  8
Base
 62
256
370
-1
  6
ByLayer
 10
25.0
 20
-26.5
 30
0.0
 11
-25.0
 21
-26.5
 31
0.0
  0
LINE
  5
61
100
AcDbEntity
100
AcDbLine
  8
Base
 62
256
370
-1
  6
ByLayer
 10
-26.5
 20
-25.0
 30
0.0
 11
-26.5
 21
25.0
 31
0.0
  0
ARC
  5
62
100
AcDbEntity
  8
Base
 62
256
370
-1
  6
ByLayer
100
AcDbCircle
 10
-25.0
 20
-25.0
 30
0.0
 40
1.5
100
AcDbArc
 50
180.0
 51
270.0
  0
LINE
  5
63
100
AcDbEntity
100
AcDbLine
  8
Base
 62
256
370
-1
  6
ByLayer
 10
17.6998106832086961
 20
4.5006145082677982
 30
0.0
 11
0.0000000000000036
 21
4.5006145082678017
 31
0.0
  0
ARC
  5
64
100
AcDbEntity
  8
Base
 62
256
370
-1
  6
ByLayer
100
AcDbCircle
 10
17.699810683208689
 20
1.700614508267801
 30
0.0
 40
2.7999999999999998
100
AcDbArc
 50
0.0
 51
90.0
  0
LINE
  5
65
100
AcDbEntity
100
AcDbLine
  8
Base
 62
256
370
-1
  6
ByLayer
 10
20.4998106832086933
 20
-6.6993854917322011
 30
0.0
 11
20.4998106832086933
 21
1.700614508267801
 31
0.0
  0
LINE
  5
66
100
AcDbEntity
100
AcDbLine
  8
Base
 62
256
370
-1
  6
ByLayer
 10
9.4998106832086933
 20
-9.4993854917321983
 30
0.0
 11
17.6998106832086961
 21
-9.4993854917321983
 31
0.0
  0
ARC
  5
67
100
AcDbEntity
  8
Base
 62
256
370
-1
  6
ByLayer
100
AcDbCircle
 10
17.6998106832086961
 20
-6.6993854917322011
 30
0.0
 40
2.7999999999999998
100
AcDbArc
 50
270.0
 51
0.0
  0
LINE
  5
68
100
AcDbEntity
100
AcDbLine
  8
Base
 62
256
370
-1
  6
ByLayer
 10
9.4998106832086933
 20
-9.4993854917321983
 30
0.0
 11
9.4998106832086933
 21
-15.6933854917321991
 31
0.0
  0
LINE
  5
69
100
AcDbEntity
100
AcDbLine
  8
Base
 62
256
370
-1
  6
ByLayer
 10
6.6998106832086961
 20
-18.493385491732198
 30
0.0
 11
0.0
 21
-18.493385491732198
 31
0.0
  0
ARC
  5
6A
100
AcDbEntity
  8
Base
 62
256
370
-1
  6
ByLayer
100
AcDbCircle
 10
6.6998106832086961
 20
-15.6933854917321973
 30
0.0
 40
2.7999999999999998
100
AcDbArc
 50
270.0
 51
0.0
  0
ARC
  5
6B
100
AcDbEntity
  8
Base
 62
256
370
-1
  6
ByLayer
100
AcDbCircle
 10
7.1666666999999933
 20
18.1666667000000004
 30
0.0
 40
2.3333333000000001
100
AcDbArc
 50
0.0
 51
90.0
  0
LINE
  5
6C
100
AcDbEntity
100
AcDbLine
  8
Base
 62
256
370
-1
  6
ByLayer
 10
9.5
 20
14.8333332999999996
 30
0.0
 11
9.5
 21
18.1666667000000004
 31
0.0
  0
ARC
  5
6D
100
AcDbEntity
  8
Base
 62
256
370
-1
  6
ByLayer
100
AcDbCircle
 10
7.1666666999999933
 20
14.8333332999999996
 30
0.0
 40
2.3333333000000001
100
AcDbArc
 50
270.0
 51
0.0
  0
ARC
  5
6E
100
AcDbEntity
  8
Base
 62
256
370
-1
  6
ByLayer
100
AcDbCircle
 10
-7.1666667000000004
 20
14.8333332999999996
 30
0.0
 40
2.3333333000000001
100
AcDbArc
 50
180.0
 51
270.0
  0
LINE
  5
6F
100
AcDbEntity
100
AcDbLine
  8
Base
 62
256
370
-1
  6
ByLayer
 10
-9.5
 20
18.1666667000000004
 30
0.0
 11
-9.5
 21
14.8333332999999996
 31
0.0
  0
LINE
  5
70
100
AcDbEntity
100
AcDbLine
  8
Base
 62
256
370
-1
  6
ByLayer
 10
7.1666666999999933
 20
20.5
 30
0.0
 11
-7.1666667000000004
 21
20.5
 31
0.0
  0
ARC
  5
71
100
AcDbEntity
  8
Base
 62
256
370
-1
  6
ByLayer
100
AcDbCircle
 10
-7.1666667000000004
 20
18.1666667000000004
 30
0.0
 40
2.3333333000000001
100
AcDbArc
 50
90.0
 51
180.0
  0
LINE
  5
72
100
AcDbEntity
100
AcDbLine
  8
Base
 62
256
370
-1
  6
ByLayer
 10
-26.5
 20
-34.0
 30
0.0
 11
26.5
 21
-34.0
 31
0.0
  0
LINE
  5
73
100
AcDbEntity
100
AcDbLine
  8
Base
 62
256
370
-1
  6
ByLayer
 10
26.5
 20
-34.0
 30
0.0
 11
26.5
 21
-38.0
 31
0.0
  0
LINE
  5
74
100
AcDbEntity
100
AcDbLine
  8
Base
 62
256
370
-1
  6
ByLayer
 10
26.5
 20
-38.0
 30
0.0
 11
-26.5
 21
-38.0
 31
0.0
  0
LINE
  5
75
100
AcDbEntity
100
AcDbLine
  8
Base
 62
256
370
-1
  6
ByLayer
 10
-26.5
 20
-38.0
 30
0.0
 11
-26.5
 21
-34.0
 31
0.0
  0
LINE
  5
76
100
AcDbEntity
100
AcDbLine
  8
Axis
 62
256
370
-1
  6
ByLayer
 10
-28.5
 20
0.0
 30
0.0
 11
28.5
 21
0.0
 31
0.0
  0
LINE
  5
77
100
AcDbEntity
100
AcDbLine
  8
Axis
 62
256
370
-1
  6
ByLayer
 10
-0.0000000000000052
 20
-28.5
 30
0.0
 11
0.0000000000000017
 21
28.5
 31
0.0
  0
LINE
  5
78
100
AcDbEntity
100
AcDbLine
  8
Axis
 62
256
370
-1
  6
ByLayer
 10
-15.0
 20
-33.0
 30
0.0
 11
-15.0
 21
-39.0
 31
0.0
  0
LINE
  5
79
100
AcDbEntity
100
AcDbLine
  8
Axis
 62
256
370
-1
  6
ByLayer
 10
-0.0000000000000048
 20
-33.0
 30
0.0
 11
-0.0000000000000051
 21
-39.0
 31
0.0
  0
LINE
  5
7A
100
AcDbEntity
100
AcDbLine
  8
Axis
 62
256
370
-1
  6
ByLayer
 10
15.0
 20
-39.0
 30
0.0
 11
15.0
 21
-33.0
 31
0.0
  0
LINE
  5
7B
100
AcDbEntity
100
AcDbLine
  8
Hidden
 62
256
370
-1
  6
ByLayer
 10
-20.4998106832086933
 20
-34.0
 30
0.0
 11
-20.4998106832086933
 21
-38.0
 31
0.0
  0
LINE
  5
7C
100
AcDbEntity
100
AcDbLine
  8
Hidden
 62
256
370
-1
  6
ByLayer
 10
-9.4998106832086933
 20
-34.0
 30
0.0
 11
-9.4998106832086933
 21
-38.0
 31
0.0
  0
LINE
  5
7D
100
AcDbEntity
100
AcDbLine
  8
Hidden
 62
256
370
-1
  6
ByLayer
 10
-16.5
 20
-34.0
 30
0.0
 11
-16.5
 21
-38.0
 31
0.0
  0
LINE
  5
7E
100
AcDbEntity
100
AcDbLine
  8
Hidden
 62
256
370
-1
  6
ByLayer
 10
-13.5
 20
-34.0
 30
0.0
 11
-13.5000000000000018
 21
-38.0
 31
0.0
  0
LINE
  5
7F
100
AcDbEntity
100
AcDbLine
  8
Hidden
 62
256
370
-1
  6
ByLayer
 10
20.4998106832086862
 20
-34.0000000000000071
 30
0.0
 11
20.4998106832086862
 21
-37.9999999999999929
 31
0.0
  0
LINE
  5
80
100
AcDbEntity
100
AcDbLine
  8
Hidden
 62
256
370
-1
  6
ByLayer
 10
9.4998106832086826
 20
-34.0
 30
0.0
 11
9.4998106832086844
 21
-38.0
 31
0.0
  0
LINE
  5
81
100
AcDbEntity
100
AcDbLine
  8
Hidden
 62
256
370
-1
  6
ByLayer
 10
16.4999999999999929
 20
-34.0000000000000071
 30
0.0
 11
16.4999999999999929
 21
-38.0000000000000071
 31
0.0
  0
LINE
  5
82
100
AcDbEntity
100
AcDbLine
  8
Hidden
 62
256
370
-1
  6
ByLayer
 10
13.4999999999999893
 20
-34.0
 30
0.0
 11
13.4999999999999911
 21
-38.0
 31
0.0
  0
DIMENSION
  5
83
100
AcDbEntity
  8
Dimensions
 62
256
370
-1
  6
ByLayer
100
AcDbDimension
 10
-26.5
 20
-5.3200000000000376
 30
0.0
 11
-23.4999053416043466
 21
-3.4450000000000376
 31
0.0
 70
0
 71
5
 72
1
 41
1.0
 42
0.0
  1
border_safe
  3
Standard
100
AcDbAlignedDimension
 13
-20.4998106832086933
 23
-5.3200000000000376
 33
0.0
 14
-26.5
 24
-5.3200000000000376
 34
0.0
 50
0.0
100
AcDbRotatedDimension
  0
DIMENSION
  5
84
100
AcDbEntity
  8
Dimensions
 62
256
370
-1
  6
ByLayer
100
AcDbDimension
 10
-9.4998106832086933
 20
-15.0
 30
0.0
 11
-11.4999053416043466
 21
-13.125
 31
0.0
 70
0
 71
5
 72
1
 41
1.0
 42
0.0
  1
screw_safe
  3
Standard
100
AcDbAlignedDimension
 13
-13.5
 23
-15.0
 33
0.0
 14
-9.4998106832086933
 24
-15.0
 34
0.0
 50
0.0
100
AcDbRotatedDimension
  0
DIMENSION
  5
85
100
AcDbEntity
  8
Dimensions
 62
256
370
-1
  6
ByLayer
100
AcDbDimension
 10
44.2800480769233502
 20
-26.5000000000000036
 30
0.0
 11
48.7560096153854801
 21
3.996394230769301
 31
0.0
 70
0
 71
5
 72
1
 41
1.0
 42
0.0
  1
pcb->get_side()\~+2*board_safe
  3
Standard
100
AcDbAlignedDimension
 13
25.0
 23
26.5
 33
0.0
 14
25.0
 24
-26.5
 34
0.0
 50
90.0
100
AcDbRotatedDimension
  0
DIMENSION
  5
86
100
AcDbEntity
  8
Dimensions
 62
256
370
-1
  6
ByLayer
100
AcDbDimension
 10
44.2800480769233502
 20
-38.0
 30
0.0
 11
49.355468750000874
 21
-51.7533052884624567
 31
0.0
 70
0
 71
5
 72
1
 41
1.0
 42
0.0
  1
_base_thickness
  3
Standard
100
AcDbAlignedDimension
 13
26.5
 23
-34.0
 33
0.0
 14
26.5
 24
-38.0
 34
0.0
 50
90.0
100
AcDbRotatedDimension
  0
DIMENSION
  5
87
100
AcDbEntity
  8
Dimensions
 62
256
370
-1
  6
ByLayer
100
AcDbDimension
 10
-36.4471153846157492
 20
-26.4999999999999964
 30
0.0
 11
-38.3221153846157492
 21
-22.496692745866099
 31
0.0
 70
0
 71
5
 72
1
 41
1.0
 42
0.0
  1
d1
  3
Standard
100
AcDbAlignedDimension
 13
-6.6998106832086926
 23
-18.493385491732198
 33
0.0
 14
-25.0
 24
-26.5
 34
0.0
 50
90.0
100
AcDbRotatedDimension
  0
DIMENSION
  5
88
100
AcDbEntity
  8
Dimensions
 62
256
370
-1
  6
ByLayer
100
AcDbDimension
 10
-36.4471153846157421
 20
4.5006145082678044
 30
0.0
 11
-38.3221153846157421
 21
8.5003072541339009
 31
0.0
 70
0
 71
5
 72
1
 41
1.0
 42
0.0
  1
d2
  3
Standard
100
AcDbAlignedDimension
 13
-7.1666667000000004
 23
12.5
 33
0.0
 14
-17.6998106832086926
 24
4.5006145082678017
 34
0.0
 50
90.0
100
AcDbRotatedDimension
  0
MTEXT
  5
89
100
AcDbEntity
100
AcDbMText
  8
Dimensions
 62
256
370
-1
  6
ByLayer
 10
-46.4221153846162338
 20
-54.9903846153856151
 30
0.0
 40
2.0
 41
100.0
 71
1
 72
0
  1
d1\~=\~lower_back_ear_thickness\~+\~ear_clearance_tol\~+\~upper_back_ear_thickness\P
  7
normallatin1
 50
0.0
 73
1
 44
1.0
  0
MTEXT
  5
8A
100
AcDbEntity
100
AcDbMText
  8
Dimensions
 62
256
370
-1
  6
ByLayer
 10
-46.5579927884623856
 20
-59.3464543269241602
 30
0.0
 40
2.0
 41
100.0
 71
1
 72
0
  1
d2\~=\~lower_front_ear_thickness\~+\~servo->get_leg_z()\P
  7
normallatin1
 50
0.0
 73
1
 44
1.0
  0
DIMENSION
  5
8B
100
AcDbEntity
  8
Dimensions
 62
256
370
-1
  6
ByLayer
100
AcDbDimension
 10
7.1666666999999933
 20
12.5
 30
0.0
 11
5.2916666999999933
 21
16.5
 31
0.0
 70
0
 71
5
 72
1
 41
1.0
 42
0.0
  1
d3
  3
Standard
100
AcDbAlignedDimension
 13
7.1666666999999933
 23
20.5
 33
0.0
 14
7.1666666999999933
 24
12.5
 34
0.0
 50
90.0
100
AcDbRotatedDimension
  0
DIMENSION
  5
8C
100
AcDbEntity
  8
Dimensions
 62
256
370
-1
  6
ByLayer
100
AcDbDimension
 10
17.6998106832086961
 20
-9.4993854917321983
 30
0.0
 11
15.8248106832086961
 21
-2.4993854917321978
 31
0.0
 70
0
 71
5
 72
1
 41
1.0
 42
0.0
  1
d4
  3
Standard
100
AcDbAlignedDimension
 13
17.699810683208689
 23
4.5006145082678009
 33
0.0
 14
17.6998106832086961
 24
-9.4993854917321983
 34
0.0
 50
90.0
100
AcDbRotatedDimension
  0
DIMENSION
  5
8D
100
AcDbEntity
  8
Dimensions
 62
256
370
-1
  6
ByLayer
100
AcDbDimension
 10
34.5288461538467928
 20
-18.4933854917322016
 30
0.0
 11
32.6538461538467928
 21
-6.9963854917322017
 31
0.0
 70
0
 71
5
 72
1
 41
1.0
 42
0.0
  1
d5
  3
Standard
100
AcDbAlignedDimension
 13
18.9498106832086961
 23
4.5006145082678017
 33
0.0
 14
6.6998106832086961
 24
-18.493385491732198
 34
0.0
 50
90.0
100
AcDbRotatedDimension
  0
DIMENSION
  5
8E
100
AcDbEntity
  8
Dimensions
 62
256
370
-1
  6
ByLayer
100
AcDbDimension
 10
15.0
 20
-46.518028846154138
 30
0.0
 11
0.0000000000000001
 21
-44.643028846154138
 31
0.0
 70
0
 71
5
 72
1
 41
1.0
 42
0.0
  1
pcb->get_drill_x()
  3
Standard
100
AcDbAlignedDimension
 13
-15.0
 23
-39.0
 33
0.0
 14
15.0
 24
-39.0
 34
0.0
 50
0.0
100
AcDbRotatedDimension
  0
LINE
  5
8F
100
AcDbEntity
100
AcDbLine
  8
Base
 62
256
370
-1
  6
ByLayer
 10
-7.1666667000000004
 20
12.5
 30
0.0
 11
7.1666666999999933
 21
12.5
 31
0.0
  0
DIMENSION
  5
90
100
AcDbEntity
  8
Dimensions
 62
256
370
-1
  6
ByLayer
100
AcDbDimension
 10
-44.3599759615393481
 20
-14.9999999999999964
 30
0.0
 11
-48.0846153846164839
 21
0.1023076923076947
 31
0.0
 70
0
 71
5
 72
1
 41
1.0
 42
0.0
  1
pcb->get_drill_y()
  3
Standard
100
AcDbAlignedDimension
 13
-15.0
 23
15.0
 33
0.0
 14
-15.0
 24
-15.0
 34
0.0
 50
90.0
100
AcDbRotatedDimension
  0
DIMENSION
  5
91
100
AcDbEntity
  8
Dimensions
 62
256
370
-1
  6
ByLayer
100
AcDbDimension
 10
16.1511366527213021
 20
14.0382908928570966
 30
0.0
 11
-0.3836538461538552
 21
32.4826923076932061
 31
0.0
 70
3
 71
5
 72
1
 41
1.0
 42
0.0
  1
pcb->get_drill_diam()
  3
Standard
100
AcDbDiametricDimension
 15
13.8488633472786997
 25
15.9617091071429034
 35
0.0
 40
0.0
  0
ENDSEC
  0
SECTION
  2
OBJECTS
  0
DICTIONARY
  5
C
100
AcDbDictionary
280
0
281
1
  3
ACAD_GROUP
350
D
  3
ACAD_LAYOUT
350
1A
  3
ACAD_MLINESTYLE
350
17
  3
ACAD_PLOTSETTINGS
350
19
  3
ACAD_PLOTSTYLENAME
350
E
  3
AcDbVariableDictionary
350
92
  0
DICTIONARY
  5
D
100
AcDbDictionary
280
0
281
1
  0
ACDBDICTIONARYWDFLT
  5
E
100
AcDbDictionary
281
1
  3
Normal
350
F
100
AcDbDictionaryWithDefault
340
F
  0
ACDBPLACEHOLDER
  5
F
  0
DICTIONARY
  5
17
100
AcDbDictionary
280
0
281
1
  3
Standard
350
18
  0
MLINESTYLE
  5
18
100
AcDbMlineStyle
  2
STANDARD
 70
0
  3

 62
256
 51
90.0
 52
90.0
 71
2
 49
0.5
 62
256
  6
BYLAYER
 49
-0.5
 62
256
  6
BYLAYER
  0
DICTIONARY
  5
19
100
AcDbDictionary
280
0
281
1
  0
DICTIONARY
  5
1A
100
AcDbDictionary
281
1
  3
Layout1
350
1E
  3
Layout2
350
26
  3
Model
350
22
  0
LAYOUT
  5
1E
100
AcDbPlotSettings
  1

  2
C:\Program Files\AutoCAD 2002\plotters\DWF ePlot (optimized for plotting).pc3
  4

  6

 40
0.0
 41
0.0
 42
0.0
 43
0.0
 44
0.0
 45
0.0
 46
0.0
 47
0.0
 48
0.0
 49
0.0
140
0.0
141
0.0
142
1.0
143
1.0
 70
688
 72
0
 73
0
 74
5
  7

 75
16
147
1.0
148
0.0
149
0.0
100
AcDbLayout
  1
Layout1
 70
1
 71
1
 10
0.0
 20
0.0
 11
420.0
 21
297.0
 12
0.0
 22
0.0
 32
0.0
 14
100000000000000000000.0
 24
100000000000000000000.0
 34
100000000000000000000.0
 15
-100000000000000000000.0
 25
-100000000000000000000.0
 35
-100000000000000000000.0
146
0.0
 13
0.0
 23
0.0
 33
0.0
 16
1.0
 26
0.0
 36
0.0
 17
0.0
 27
1.0
 37
0.0
 76
0
330
1B
  0
LAYOUT
  5
22
100
AcDbPlotSettings
  1

  2
C:\Program Files\AutoCAD 2002\plotters\DWF ePlot (optimized for plotting).pc3
  4

  6

 40
0.0
 41
0.0
 42
0.0
 43
0.0
 44
0.0
 45
0.0
 46
0.0
 47
0.0
 48
0.0
 49
0.0
140
0.0
141
0.0
142
1.0
143
1.0
 70
1712
 72
0
 73
0
 74
0
  7

 75
0
147
1.0
148
0.0
149
0.0
100
AcDbLayout
  1
Model
 70
1
 71
0
 10
0.0
 20
0.0
 11
12.0
 21
9.0
 12
0.0
 22
0.0
 32
0.0
 14
0.0
 24
0.0
 34
0.0
 15
0.0
 25
0.0
 35
0.0
146
0.0
 13
0.0
 23
0.0
 33
0.0
 16
1.0
 26
0.0
 36
0.0
 17
0.0
 27
1.0
 37
0.0
 76
0
330
1F
  0
LAYOUT
  5
26
100
AcDbPlotSettings
  1

  2
C:\Program Files\AutoCAD 2002\plotters\DWF ePlot (optimized for plotting).pc3
  4

  6

 40
0.0
 41
0.0
 42
0.0
 43
0.0
 44
0.0
 45
0.0
 46
0.0
 47
0.0
 48
0.0
 49
0.0
140
0.0
141
0.0
142
1.0
143
1.0
 70
688
 72
0
 73
0
 74
5
  7

 75
16
147
1.0
148
0.0
149
0.0
100
AcDbLayout
  1
Layout2
 70
1
 71
2
 10
0.0
 20
0.0
 11
12.0
 21
9.0
 12
0.0
 22
0.0
 32
0.0
 14
0.0
 24
0.0
 34
0.0
 15
0.0
 25
0.0
 35
0.0
146
0.0
 13
0.0
 23
0.0
 33
0.0
 16
1.0
 26
0.0
 36
0.0
 17
0.0
 27
1.0
 37
0.0
 76
0
330
23
  0
DICTIONARY
  5
92
100
AcDbDictionary
281
1
  3
DIMASSOC
350
94
  3
HIDETEXT
350
93
  0
DICTIONARYVAR
  5
93
100
DictionaryVariables
280
0
  1
2
  0
DICTIONARYVAR
  5
94
100
DictionaryVariables
280
0
  1
1
  0
ENDSEC
  0
EOF
